<?xml version="1.0" standalone="no"?><!DOCTYPE svg PUBLIC "-//W3C//DTD SVG 1.1//EN" "http://www.w3.org/Graphics/SVG/1.1/DTD/svg11.dtd"><svg t="1569073324644" class="icon" viewBox="0 0 1024 1024" version="1.1" xmlns="http://www.w3.org/2000/svg" p-id="4604" width="128" height="128" xmlns:xlink="http://www.w3.org/1999/xlink"><defs><style type="text/css"></style></defs><path d="M435.190784 0 51.198976 0c-28.300288 0-51.198976 22.900736-51.198976 51.149824l0 383.543296c0 28.197888 22.898688 51.098624 51.198976 51.098624l383.991808 0c28.250112 0 51.198976-22.900736 51.198976-51.098624L486.38976 51.149824C486.38976 22.900736 463.440896 0 435.190784 0zM435.190784 536.891392 51.198976 536.891392c-28.300288 0-51.198976 22.897664-51.198976 51.195904l0 383.49312c0 28.20096 22.898688 51.098624 51.198976 51.098624l383.991808 0c28.250112 0 51.198976-22.897664 51.198976-51.098624L486.38976 588.087296C486.38976 559.789056 463.440896 536.891392 435.190784 536.891392zM907.880448 870.583296c-1.256448-1.256448-2.610176-2.353152-4.035584-3.294208 27.150336-34.69312 43.334656-78.357504 43.334656-125.802496 0-112.9984-91.6992-204.5952-204.795904-204.5952-113.097728 0-204.796928 91.5968-204.796928 204.5952 0 112.948224 91.6992 204.493824 204.796928 204.493824 47.514624 0 91.24864-16.162816 125.997056-43.278336 0.941056 1.426432 2.040832 2.778112 3.299328 4.031488l90.500096 90.396672c9.998336 10.002432 26.19904 10.002432 36.201472 0 9.998336-9.94816 9.998336-26.14784 0-36.150272L907.880448 870.583296zM742.383616 894.880768c-84.84864 0-153.595904-68.696064-153.595904-153.3952 0-84.750336 68.747264-153.399296 153.595904-153.399296 84.847616 0 153.597952 68.64896 153.597952 153.399296C895.981568 826.184704 827.232256 894.880768 742.383616 894.880768zM972.77952 0 588.787712 0c-28.300288 0-51.201024 22.900736-51.201024 51.149824l0 383.543296c0 28.197888 22.900736 51.098624 51.201024 51.098624l383.991808 0c28.249088 0 51.196928-22.900736 51.196928-51.098624L1023.976448 51.149824C1023.976448 22.900736 1001.028608 0 972.77952 0z" p-id="4605"></path></svg>