<?xml version="1.0" standalone="no"?><!DOCTYPE svg PUBLIC "-//W3C//DTD SVG 1.1//EN" "http://www.w3.org/Graphics/SVG/1.1/DTD/svg11.dtd"><svg t="1569068078810" class="icon" viewBox="0 0 1024 1024" version="1.1" xmlns="http://www.w3.org/2000/svg" p-id="2995" xmlns:xlink="http://www.w3.org/1999/xlink" width="200" height="200"><defs><style type="text/css"></style></defs><path d="M842 182H182c-66 0-120 54-120 120v420c0 66 54 120 120 120h660c66 0 120-54 120-120V302c0-66-54-120-120-120z m30 510c0 33-27 60-60 60H212c-33 0-60-27-60-60V332c0-33 27-60 60-60h600c33 0 60 27 60 60v360z" fill="" p-id="2996"></path><path d="M302 512m-60 0a60 60 0 1 0 120 0 60 60 0 1 0-120 0Z" fill="" p-id="2997"></path><path d="M512 512m-60 0a60 60 0 1 0 120 0 60 60 0 1 0-120 0Z" fill="" p-id="2998"></path><path d="M722 512m-60 0a60 60 0 1 0 120 0 60 60 0 1 0-120 0Z" fill="" p-id="2999"></path></svg>