<?xml version="1.0" standalone="no"?><!DOCTYPE svg PUBLIC "-//W3C//DTD SVG 1.1//EN" "http://www.w3.org/Graphics/SVG/1.1/DTD/svg11.dtd"><svg t="1569068334280" class="icon" viewBox="0 0 1024 1024" version="1.1" xmlns="http://www.w3.org/2000/svg" p-id="4161" xmlns:xlink="http://www.w3.org/1999/xlink" width="200" height="200"><defs><style type="text/css"></style></defs><path d="M832 960H192a128 128 0 0 1-128-128V512h64V128a64 64 0 0 1 64-64h640a64 64 0 0 1 64 64v384h64v320a128 128 0 0 1-128 128z m0-832H192v384h192v128h256V512h192V128z m64 448h-192v64a64 64 0 0 1-64 64H384a64 64 0 0 1-64-64V576H128v256a64 64 0 0 0 64 64h640a64 64 0 0 0 64-64V576z" p-id="4162"></path></svg>