<?xml version="1.0" standalone="no"?><!DOCTYPE svg PUBLIC "-//W3C//DTD SVG 1.1//EN" "http://www.w3.org/Graphics/SVG/1.1/DTD/svg11.dtd"><svg t="1569072985089" class="icon" viewBox="0 0 1028 1024" version="1.1" xmlns="http://www.w3.org/2000/svg" p-id="2000" xmlns:xlink="http://www.w3.org/1999/xlink" width="200.78125" height="200"><defs><style type="text/css"></style></defs><path d="M1020.586667 650.24c1.706667 8.533333 1.706667 18.773333-1.706667 32.426667-1.706667 11.946667-5.12 25.6-10.24 37.546666-5.12 11.946667-11.946667 23.893333-18.773333 34.133334-6.826667 10.24-15.36 17.066667-23.893334 22.186666-8.533333 5.12-17.066667 6.826667-22.186666 6.826667-6.826667 0-13.653333-1.706667-22.186667-5.12-6.826667-1.706667-17.066667-3.413333-27.306667-6.826667-10.24-1.706667-22.186667-1.706667-34.133333-1.706666-11.946667 1.706667-22.186667 3.413333-34.133333 6.826666s-20.48 10.24-29.013334 18.773334c-17.066667 18.773333-27.306667 39.253333-30.72 63.146666-3.413333 23.893333 0 46.08 10.24 66.56 6.826667 15.36 6.826667 29.013333-3.413333 44.373334-5.12 5.12-11.946667 11.946667-20.48 18.773333-10.24 6.826667-20.48 11.946667-30.72 17.066667-11.946667 5.12-23.893333 8.533333-35.84 11.946666-11.946667 3.413333-23.893333 5.12-32.426667 5.12-6.826667 0-11.946667-1.706667-18.773333-6.826666-5.12-5.12-10.24-10.24-11.946667-17.066667h-1.706666c-8.533333-22.186667-22.186667-42.666667-40.96-58.026667-18.773333-17.066667-42.666667-23.893333-68.266667-23.893333s-47.786667 8.533333-68.266667 23.893333c-20.48 17.066667-34.133333 35.84-42.666666 58.026667-3.413333 8.533333-8.533333 15.36-17.066667 18.773333-6.826667 3.413333-15.36 6.826667-23.893333 6.826667-10.24 0-22.186667-1.706667-34.133334-5.12-13.653333-3.413333-25.6-8.533333-39.253333-13.653333-11.946667-5.12-23.893333-11.946667-34.133333-18.773334-10.24-6.826667-17.066667-15.36-22.186667-22.186666-3.413333-5.12-5.12-11.946667-6.826667-18.773334 0-6.826667 1.706667-17.066667 8.533334-29.013333 8.533333-17.066667 11.946667-35.84 8.533333-58.026667-1.706667-22.186667-11.946667-40.96-27.306667-59.733333-10.24-10.24-22.186667-18.773333-37.546666-22.186667-15.36-3.413333-29.013333-5.12-40.96-3.413333-15.36 0-30.72 3.413333-47.786667 8.533333-10.24 3.413333-20.48 1.706667-30.72-1.706666-6.826667-5.12-15.36-11.946667-22.186667-22.186667-6.826667-10.24-13.653333-22.186667-18.773333-35.84-5.12-11.946667-10.24-25.6-11.946667-39.253333-3.413333-13.653333-3.413333-23.893333-1.706666-34.133334 1.706667-15.36 10.24-25.6 22.186666-30.72 22.186667-8.533333 40.96-23.893333 59.733334-42.666666 17.066667-20.48 25.6-42.666667 25.6-68.266667s-8.533333-47.786667-25.6-66.56-37.546667-32.426667-59.733334-40.96c-6.826667-1.706667-11.946667-6.826667-17.066666-15.36-5.12-8.533333-6.826667-17.066667-6.826667-25.6 0-10.24 1.706667-20.48 5.12-32.426667 3.413333-11.946667 6.826667-23.893333 11.946667-34.133333 5.12-10.24 10.24-20.48 17.066666-30.72 6.826667-8.533333 13.653333-15.36 20.48-20.48 5.12-3.413333 11.946667-5.12 17.066667-5.12 5.12 0 11.946667 1.706667 18.773333 5.12 22.186667 8.533333 44.373333 11.946667 68.266667 8.533333 23.893333-3.413333 44.373333-13.653333 63.146667-30.72 8.533333-8.533333 15.36-18.773333 18.773333-32.426666 3.413333-11.946667 6.826667-25.6 6.826667-37.546667 1.706667-11.946667 1.706667-23.893333 0-34.133333-1.706667-10.24-1.706667-17.066667-3.413334-22.186667-1.706667-5.12-3.413333-10.24-3.413333-15.36-1.706667-5.12 0-10.24 1.706667-15.36 3.413333-10.24 11.946667-18.773333 22.186666-27.306667 11.946667-6.826667 23.893333-13.653333 37.546667-18.773333 13.653333-5.12 25.6-8.533333 39.253333-11.946667 11.946667-1.706667 20.48-3.413333 29.013334-3.413333 10.24 0 17.066667 3.413333 22.186666 8.533333 5.12 6.826667 8.533333 11.946667 11.946667 18.773334 8.533333 20.48 20.48 37.546667 39.253333 52.906666 18.773333 15.36 39.253333 22.186667 64.853334 22.186667s47.786667-6.826667 68.266666-22.186667c20.48-13.653333 34.133333-32.426667 40.96-54.613333 3.413333-5.12 6.826667-11.946667 13.653334-18.773333 6.826667-3.413333 11.946667-6.826667 18.773333-6.826667 10.24 0 22.186667 1.706667 34.133333 5.12 11.946667 3.413333 23.893333 6.826667 35.84 11.946667 11.946667 5.12 22.186667 11.946667 32.426667 20.48 10.24 8.533333 17.066667 17.066667 23.893333 25.6 3.413333 5.12 5.12 11.946667 3.413334 18.773333-1.706667 6.826667-3.413333 11.946667-5.12 15.36-10.24 20.48-11.946667 44.373333-8.533334 66.56 3.413333 23.893333 13.653333 44.373333 32.426667 61.44 17.066667 17.066667 39.253333 27.306667 64.853333 29.013333 25.6 1.706667 49.493333-1.706667 71.68-11.946666 5.12-3.413333 13.653333-5.12 22.186667-5.12s15.36 3.413333 22.186667 10.24c10.24 10.24 20.48 25.6 29.013333 46.08 8.533333 20.48 13.653333 42.666667 17.066667 63.146666 1.706667 11.946667 0 22.186667-6.826667 29.013334-5.12 6.826667-11.946667 11.946667-17.066667 13.653333-22.186667 8.533333-42.666667 22.186667-58.026666 42.666667-15.36 20.48-23.893333 42.666667-23.893334 68.266666s6.826667 46.08 20.48 64.853334c13.653333 18.773333 30.72 32.426667 52.906667 39.253333 5.12 3.413333 10.24 5.12 13.653333 8.533333 5.12 8.533333 10.24 17.066667 13.653334 27.306667z m-510.293334 97.28c32.426667 0 63.146667-6.826667 93.866667-18.773333s54.613333-29.013333 76.8-51.2c22.186667-22.186667 39.253333-47.786667 51.2-76.8 11.946667-29.013333 18.773333-59.733333 18.773333-92.16 0-32.426667-6.826667-63.146667-18.773333-92.16-11.946667-29.013333-29.013333-54.613333-51.2-75.093334-22.186667-22.186667-47.786667-39.253333-76.8-51.2-29.013333-11.946667-59.733333-18.773333-93.866667-18.773333-32.426667 0-63.146667 6.826667-92.16 18.773333-29.013333 11.946667-54.613333 29.013333-75.093333 51.2-22.186667 22.186667-39.253333 46.08-51.2 75.093334-11.946667 29.013333-18.773333 59.733333-18.773333 92.16 0 32.426667 6.826667 63.146667 18.773333 92.16 11.946667 29.013333 29.013333 54.613333 51.2 76.8 22.186667 22.186667 46.08 39.253333 75.093333 51.2 29.013333 13.653333 59.733333 18.773333 92.16 18.773333z" fill="#1A1A1A" p-id="2001"></path><path d="M512 510.293333m-66.56 0a66.56 66.56 0 1 0 133.12 0 66.56 66.56 0 1 0-133.12 0Z" fill="#1A1A1A" p-id="2002"></path></svg>