<?xml version="1.0" standalone="no"?><!DOCTYPE svg PUBLIC "-//W3C//DTD SVG 1.1//EN" "http://www.w3.org/Graphics/SVG/1.1/DTD/svg11.dtd"><svg t="1605754128479" class="icon" viewBox="0 0 1024 1024" version="1.1" xmlns="http://www.w3.org/2000/svg" p-id="9304" xmlns:xlink="http://www.w3.org/1999/xlink" width="48" height="48"><defs><style type="text/css"></style></defs><path d="M788.544 292.896a135.776 135.776 0 0 1-135.648-135.616V1.12H165.248a82.56 82.56 0 0 0-82.56 82.56v856.704a82.528 82.528 0 0 0 82.56 82.496h693.472a82.528 82.528 0 0 0 82.528-82.496V292.896h-152.704z m16.544 546.208H218.88v-55.296h586.208v55.296z m0-176.96H218.88v-55.296h586.208v55.296z m0-176.96H218.88v-55.296h586.208v55.296zM706.016 1.12v156.16a82.528 82.528 0 0 0 82.56 82.496h152.704L706.016 1.12z" p-id="9305"></path></svg>