<?xml version="1.0" standalone="no"?><!DOCTYPE svg PUBLIC "-//W3C//DTD SVG 1.1//EN" "http://www.w3.org/Graphics/SVG/1.1/DTD/svg11.dtd"><svg t="1605754213546" class="icon" viewBox="0 0 1024 1024" version="1.1" xmlns="http://www.w3.org/2000/svg" p-id="9849" xmlns:xlink="http://www.w3.org/1999/xlink" width="48" height="48"><defs><style type="text/css"></style></defs><path d="M433.792 433.792l138.752 61.482667a58.538667 58.538667 0 1 1-77.226667 77.226666l-61.525333-138.666666zM512 981.333333C253.44 981.333333 42.666667 770.56 42.666667 512S253.44 42.666667 512 42.666667s469.333333 210.773333 469.333333 469.333333-210.773333 469.333333-469.333333 469.333333z m0-85.333333c211.413333 0 384-172.586667 384-384s-172.586667-384-384-384-384 172.586667-384 384 172.586667 384 384 384zM275.498667 414.165333a42.666667 42.666667 0 0 1-78.762667-32.810666 342.826667 342.826667 0 0 1 74.069333-110.506667 340.352 340.352 0 0 1 482.389334 0 342.826667 342.826667 0 0 1 74.069333 110.506667 42.666667 42.666667 0 1 1-78.762667 32.810666 257.493333 257.493333 0 0 0-55.637333-83.029333 255.018667 255.018667 0 0 0-361.728 0 257.493333 257.493333 0 0 0-55.637333 83.029333z" p-id="9850"></path></svg>