<?xml version="1.0" standalone="no"?><!DOCTYPE svg PUBLIC "-//W3C//DTD SVG 1.1//EN" "http://www.w3.org/Graphics/SVG/1.1/DTD/svg11.dtd"><svg t="1605754703937" class="icon" viewBox="0 0 1024 1024" version="1.1" xmlns="http://www.w3.org/2000/svg" p-id="16137" xmlns:xlink="http://www.w3.org/1999/xlink" width="48" height="48"><defs><style type="text/css"></style></defs><path d="M824.2176 826.7776v-63.488-365.3632H187.8016v461.5168h636.416v-32.768zM652.3904 637.1328L446.464 797.2864a17.7152 17.7152 0 0 1-28.5696-13.9264V462.848a17.7152 17.7152 0 0 1 28.672-13.9264L652.288 609.1776a17.8176 17.8176 0 0 1 0 27.9552z m238.7968-395.9808H596.6848L763.904 73.9328a43.3152 43.3152 0 0 0-61.1328-61.2352l-196.7104 196.608L309.248 12.8a43.3152 43.3152 0 0 0-61.2352 61.2352l167.424 167.2192H120.832a69.632 69.632 0 0 0-69.632 69.632v631.3984c0 38.5024 31.1296 69.632 69.632 69.632h770.3552a69.632 69.632 0 0 0 69.632-69.632V310.8864a69.632 69.632 0 0 0-69.632-69.632z m5.2224 706.3552H115.712V305.5616h780.8v642.048z" p-id="16138"></path></svg>