<?xml version="1.0" standalone="no"?><!DOCTYPE svg PUBLIC "-//W3C//DTD SVG 1.1//EN" "http://www.w3.org/Graphics/SVG/1.1/DTD/svg11.dtd"><svg t="1606182380799" class="icon" viewBox="0 0 1024 1024" version="1.1" xmlns="http://www.w3.org/2000/svg" p-id="6795" xmlns:xlink="http://www.w3.org/1999/xlink" width="48" height="48"><defs><style type="text/css"></style></defs><path d="M371.95899 0h-293.993892C34.974482 0 0.003448 34.971034 0.003448 77.96165v293.993892c0 42.990616 34.971034 77.96165 77.96165 77.96165h293.993892c42.990616 0 77.96165-34.971034 77.96165-77.96165v-293.993892C449.913744 34.971034 414.949606 0 371.95899 0zM946.034902 0h-293.993892c-42.990616 0-77.96165 34.971034-77.96165 77.96165v293.993892c0 42.990616 34.971034 77.96165 77.96165 77.96165h293.993892c42.990616 0 77.96165-34.971034 77.96165-77.96165v-293.993892C1023.996552 34.971034 989.025518 0 946.034902 0zM371.95899 574.082808h-293.993892c-42.990616 0-77.96165 34.967586-77.96165 77.958202v293.993892C0.003448 989.025518 34.974482 1023.996552 77.965098 1023.996552h293.993892c42.990616 0 77.96165-34.971034 77.96165-77.96165v-293.993892c-0.006896-42.990616-34.971034-77.958202-77.96165-77.958202zM946.034902 574.082808h-293.993892c-42.990616 0-77.96165 34.971034-77.96165 77.96165v293.993892c0 42.990616 34.971034 77.96165 77.96165 77.96165h293.993892C989.025518 1023.996552 1023.996552 989.025518 1023.996552 946.034902v-293.993892c0-42.990616-34.971034-77.958202-77.96165-77.958202z" p-id="6796"></path></svg>