<?xml version="1.0" standalone="no"?><!DOCTYPE svg PUBLIC "-//W3C//DTD SVG 1.1//EN" "http://www.w3.org/Graphics/SVG/1.1/DTD/svg11.dtd"><svg t="1605754203607" class="icon" viewBox="0 0 1024 1024" version="1.1" xmlns="http://www.w3.org/2000/svg" p-id="9576" xmlns:xlink="http://www.w3.org/1999/xlink" width="48" height="48"><defs><style type="text/css"></style></defs><path d="M902.7 1022.4H119.3c-43.2 0-78.3-35.2-78.3-78.3V82.3C41 39.2 76.1 4 119.3 4h783.4C945.9 4 981 39.2 981 82.3V944c0.1 43.3-35.1 78.4-78.3 78.4zM119.3 82.3V944h783.4V82.3H119.3z" p-id="9577"></path><path d="M746.1 287.6H276c-21.6 0-39.2-17.5-39.2-39.2s17.5-39.2 39.2-39.2h470c21.6 0 39.2 17.5 39.2 39.2s-17.5 39.2-39.1 39.2zM746.1 444.3H276c-21.6 0-39.2-17.5-39.2-39.2 0-21.7 17.5-39.2 39.2-39.2h470c21.6 0 39.2 17.5 39.2 39.2 0 21.7-17.5 39.2-39.1 39.2zM276 796.8c-11.5 0-22.9-5-30.6-14.7-13.5-16.9-10.8-41.5 6.1-55.1l195.9-156.7c15.5-12.5 38.1-11.2 52.2 2.9l89.8 89.8 129-129c15.3-15.3 40.1-15.3 55.4 0s15.3 40.1 0 55.4L617.1 746.2c-15.3 15.3-40.1 15.3-55.4 0L469 653.5 300.5 788.3c-7.2 5.8-15.9 8.5-24.5 8.5z" p-id="9578"></path></svg>