<?xml version="1.0" standalone="no"?><!DOCTYPE svg PUBLIC "-//W3C//DTD SVG 1.1//EN" "http://www.w3.org/Graphics/SVG/1.1/DTD/svg11.dtd"><svg t="1605754331337" class="icon" viewBox="0 0 1024 1024" version="1.1" xmlns="http://www.w3.org/2000/svg" p-id="13928" xmlns:xlink="http://www.w3.org/1999/xlink" width="48" height="48"><defs><style type="text/css"></style></defs><path d="M640.219429 1018.953143H115.625558c-30.094961 0-57.460364-11.154286-79.123948-32.272624C14.525506 965.272935 2.912416 937.824416 2.912416 907.310545v-123.102753l1.156987-4.850701c5.844779-24.546078 17.477818-43.66961 34.576623-56.825351 11.117714-8.544416 24.602597-13.065974 39.01174-13.065974 15.489662 0 31.497974 5.063481 48.929247 15.479689 3.490909 2.031377 5.608727 3.065351 6.672623 3.544103l4.162494 0.694858 5.715117 2.855896c12.580571 6.286961 24.812052 9.352312 37.399272 9.352311 13.498182 0 25.633247-2.377143 37.106702-7.254441 11.722805-4.993662 21.607065-11.596468 30.214649-20.207377 8.694026-8.694026 15.346701-18.505143 20.340364-29.998545 4.790857-11.014649 7.121455-22.870442 7.121454-36.258909 0-13.508156-2.377143-25.643221-7.251117-37.103377-4.990338-11.72613-11.599792-21.61039-20.210701-30.221299s-18.498494-15.220364-30.221299-20.214026c-11.463481-4.877299-23.60187-7.247792-37.103376-7.247792-12.603844 0-24.758857 2.649766-37.163221 8.105559l-1.801974 0.797922-1.865143 0.618389c-3.361247 1.12374-4.817455 1.818597-5.073454 1.954909a561.012364 561.012364 0 0 1-27.079481 12.663689c-14.984312 6.519688-29.686026 9.053091-43.453506 7.520415-18.83761-2.084571-35.397818-12.487481-46.605299-29.287065-8.813714-13.222234-13.428364-30.208-14.538805-53.470753l-0.04987-2.024727v-111.729039c0-30.301091 11.476779-57.802805 33.190233-79.51626 21.723429-21.716779 49.218494-33.190234 79.519585-33.190234h95.544519c-6.160623-19.203325-9.272519-39.58026-9.272519-60.738493 0-29.207273 5.678545-56.968312 16.879376-82.498494 10.961455-24.98826 25.932468-47.074078 44.514078-65.652363 18.584935-18.58161 40.667429-33.559273 65.652364-44.514078 25.530182-11.197506 52.928831-16.879377 81.434597-16.879377s55.90774 5.678545 81.447896 16.879377c24.984935 10.961455 47.067429 25.932468 65.645715 44.514078 18.578286 18.578286 33.559273 40.667429 44.514078 65.652363 11.200831 25.530182 16.876052 53.291221 16.876052 82.498494 0 21.364364-2.92239 41.638234-8.720624 60.738493h30.084987c30.520519 0 57.969039 11.609766 79.376624 33.582546 21.111688 21.676883 32.265974 49.035636 32.265974 79.123948V457.142857c20.220675-6.975169 41.681455-10.502649 63.933506-10.502649 27.667948 0 54.42826 5.445818 79.519585 16.204467 24.745558 10.612364 46.771532 25.453714 65.442909 44.121767 18.661403 18.664727 33.506078 40.684052 44.121766 65.449558 10.745351 25.084675 16.201143 51.838338 16.201143 79.506286 0 28.485818-5.492364 55.505455-16.317507 80.304208-10.609039 24.313351-25.417143 46.070026-44.012052 64.66161-18.661403 18.661403-40.680727 33.506078-65.436259 44.121766-25.104623 10.752-51.851636 16.201143-79.519585 16.201143-22.258701 0-43.712831-3.53413-63.930182-10.499325v60.598857c0 30.291117-11.290597 57.609974-32.648311 78.974338-21.361039 21.377662-48.676571 32.66826-78.990961 32.66826zM87.881143 800.66826v106.642285c0 7.676675 2.290701 13.039377 7.916052 18.518442 5.874701 5.715117 11.805922 8.162078 19.831688 8.162078h524.59387c7.902753 0 13.381818-2.25413 18.910753-7.77974 5.518961-5.518961 7.773091-11.008 7.773091-18.904104V682.422857l69.99439 59.49839c10.728727 9.10961 23.202909 16.630026 37.083429 22.351792 13.026078 5.362701 26.707117 7.972571 41.811116 7.972571 16.330805 0 31.38826-3.052052 46.046754-9.339013 14.987636-6.423273 27.694545-14.961039 38.838857-26.112 11.21413-11.21413 19.785143-23.817974 26.215065-38.559584 6.207169-14.219636 9.225974-29.370182 9.225974-46.326026 0-16.324156-3.058701-31.38161-9.339013-46.040104-6.416623-14.987636-14.961039-27.694545-26.105351-38.838857-11.150961-11.144312-23.851221-19.682078-38.838857-26.105351-14.655169-6.286961-29.715948-9.339013-46.046753-9.339013-15.110649 0-28.785039 2.60987-41.817766 7.972572-13.877195 5.715117-26.358026 13.238857-37.083429 22.351792l-69.98774 59.488416v-233.382234c0-8.025766-2.440312-13.956987-8.168728-19.831689-5.469091-5.615377-10.838442-7.909403-18.511792-7.909402h-193.210182l59.814234-70.070857c18.215896-21.334442 27.072831-46.073351 27.072831-75.633039 0-17.630753-3.181714-33.456208-9.728-48.370702-6.792312-15.486338-15.549506-28.469195-26.783584-39.696623-11.230753-11.230753-24.210286-19.997922-39.689974-26.783584-14.917818-6.546286-30.394182-9.721351-47.316779-9.721351-16.912623 0-32.388987 3.181714-47.306805 9.721351-15.483013 6.788987-28.469195 15.546182-39.696624 26.783584-11.230753 11.230753-19.991273 24.21361-26.78026 39.693299-6.546286 14.921143-9.728 30.746597-9.728 48.37735 0 14.701714 2.367169 27.950545 7.231169 40.50452 5.143273 13.265455 12.111792 25.433766 20.702753 36.172467l55.222858 69.023585H115.625558c-7.906078 0-13.541403 2.407065-19.442701 8.308364-5.897974 5.897974-8.305039 11.526649-8.305039 19.436051v104.60426c2.895792-1.376416 5.818182-2.802701 8.747221-4.265558 4.192416-2.094545 8.893506-4.042805 14.326026-5.924572 22.531325-9.638234 45.92374-14.522182 69.58213-14.522181 24.818701 0 48.493714 4.721039 70.376727 14.033454 21.617039 9.202701 40.80374 22.089143 57.024831 38.306909 16.221091 16.22774 29.110857 35.414442 38.313559 57.03813 9.309091 21.876364 14.026805 45.551377 14.026805 70.370078 0 24.928416-4.75761 48.526961-14.163117 70.144-9.189403 21.14161-22.035948 40.052364-38.177247 56.193662-16.214442 16.221091-35.404468 29.110857-57.034805 38.310234-21.886338 9.319065-45.561351 14.040104-70.370078 14.040104-24.150442 0-47.991688-5.435844-70.945247-16.167896-6.49974-1.908364-13.521455-4.990338-21.70348-9.511896z m0 0" p-id="13929"></path></svg>