<?xml version="1.0" standalone="no"?><!DOCTYPE svg PUBLIC "-//W3C//DTD SVG 1.1//EN" "http://www.w3.org/Graphics/SVG/1.1/DTD/svg11.dtd"><svg t="1605754196880" class="icon" viewBox="0 0 1049 1024" version="1.1" xmlns="http://www.w3.org/2000/svg" p-id="9440" xmlns:xlink="http://www.w3.org/1999/xlink" width="49.171875" height="48"><defs><style type="text/css"></style></defs><path d="M1028.064304 161.115127C1067.403694 255.795507 1048.667 368.829156 971.521917 445.820869 886.554968 530.583325 758.1332 543.798702 658.340489 487.63974L586.205492 566.267399 637.661108 617.825262 668.437344 587.125711C684.157763 571.430854 709.642736 571.430854 725.363155 587.125711L974.870494 838.575736C990.616475 854.270594 990.616475 879.704443 974.870494 895.399301L860.99331 1009.020869C845.247329 1024.715726 819.762356 1024.715726 804.041937 1009.020869L554.534598 757.596405C538.788617 741.901548 538.788617 716.442137 554.534598 700.772841L582.601298 672.731702 533.548477 623.678882 188.466101 999.79311C157.025262 1031.182826 106.029755 1031.182826 74.563355 999.79311L46.087668 971.394109C14.64683 940.004393 14.64683 889.111133 46.087668 857.74698L439.174838 529.27968 178.11363 268.090664 95.677284 268.065102 0.30674 114.976335 77.119521 38.214678 234.042536 134.01977 235.116126 214.564553 499.19361 479.127708 576.031952 414.891263C500.931802 312.721318 508.779231 168.86031 601.337993 76.480479 678.150774-0.127808 790.775437-19.12012 885.404693 19.375736L716.160959 185.884373 858.539391 327.930504 1028.064304 161.115127ZM140.64024 897.802097C124.894259 882.107239 99.409286 882.107239 83.688867 897.802097 67.968447 913.496955 67.968447 938.930804 83.688867 954.625662 99.409286 970.320519 124.894259 970.320519 140.64024 954.625662 156.360659 938.930804 156.360659 913.496955 140.64024 897.802097Z" p-id="9441"></path></svg>